<?xml version="1.0" encoding="UTF-8"?>
<svg id="Capa_1" data-name="Capa 1" xmlns="http://www.w3.org/2000/svg" viewBox="0 0 1205.62 230.14">
  <defs>
    <style>
      .cls-1 {
        fill: none;
        stroke: #43a6e8;
        stroke-miterlimit: 10;
        stroke-width: 4px;
      }

      .cls-2 {
        fill: #43a6e8;
      }
    </style>
  </defs>
  <g>
    <path class="cls-1" d="M370.78,114.46v28.33h-18.5v-28.56l-30.96-51.4h19.65l21.36,35.53,21.36-35.53h18.16l-31.07,51.63Z"/>
    <path class="cls-1" d="M396.94,112.06c0-18.51,14.28-31.64,33.81-31.64s33.7,13.14,33.7,31.64-14.16,31.64-33.7,31.64-33.81-13.14-33.81-31.64ZM446.4,112.06c0-10.62-6.74-17.02-15.65-17.02s-15.76,6.4-15.76,17.02,6.85,17.02,15.76,17.02,15.65-6.4,15.65-17.02Z"/>
    <path class="cls-1" d="M550.35,142.79l-.11-47.98-23.53,39.52h-8.34l-23.42-38.5v46.95h-17.36V62.83h15.31l29.93,49.69,29.47-49.69h15.19l.23,79.96h-17.36Z"/>
    <path class="cls-1" d="M645.27,117.09h-46.49c1.71,7.65,8.22,12.34,17.59,12.34,6.51,0,11.19-1.94,15.42-5.94l9.48,10.28c-5.71,6.51-14.28,9.94-25.36,9.94-21.25,0-35.07-13.36-35.07-31.64s14.05-31.64,32.78-31.64,31.99,12.11,31.99,31.87c0,1.37-.23,3.31-.34,4.8ZM598.55,106.69h30.27c-1.26-7.77-7.08-12.79-15.08-12.79s-13.94,4.91-15.19,12.79Z"/>
  </g>
  <g>
    <path class="cls-2" d="M720.67,127.94v14.85h-61.91V62.83h60.43v14.85h-42.04v17.36h37.13v14.39h-37.13v18.51h43.52Z"/>
    <path class="cls-2" d="M796.97,107.6v35.18h-17.82v-32.44c0-9.94-4.57-14.51-12.45-14.51-8.57,0-14.74,5.25-14.74,16.56v30.39h-17.82v-61.46h17.02v7.2c4.8-5.25,11.99-8.11,20.33-8.11,14.51,0,25.47,8.45,25.47,27.19Z"/>
    <path class="cls-2" d="M809.19,112.06c0-18.51,14.28-31.64,34.27-31.64,12.91,0,23.07,5.6,27.53,15.65l-13.82,7.43c-3.31-5.83-8.22-8.45-13.82-8.45-9.02,0-16.11,6.28-16.11,17.02s7.08,17.02,16.11,17.02c5.6,0,10.51-2.51,13.82-8.45l13.82,7.54c-4.45,9.82-14.62,15.54-27.53,15.54-19.99,0-34.27-13.14-34.27-31.64Z"/>
    <path class="cls-2" d="M935.65,107.72v35.07h-16.68v-7.65c-3.31,5.6-9.71,8.57-18.73,8.57-14.39,0-22.96-8-22.96-18.62s7.65-18.39,26.39-18.39h14.16c0-7.65-4.57-12.11-14.16-12.11-6.51,0-13.25,2.17-17.71,5.71l-6.4-12.45c6.74-4.8,16.68-7.42,26.5-7.42,18.73,0,29.59,8.68,29.59,27.3ZM917.83,123.37v-6.28h-12.22c-8.34,0-10.97,3.08-10.97,7.2,0,4.45,3.77,7.42,10.05,7.42,5.94,0,11.08-2.74,13.14-8.34Z"/>
    <path class="cls-2" d="M989.9,80.42v16.45c-1.49-.11-2.63-.23-4-.23-9.82,0-16.34,5.37-16.34,17.13v29.01h-17.82v-61.46h17.02v8.11c4.34-5.94,11.65-9.02,21.13-9.02Z"/>
    <path class="cls-2" d="M1063.36,81.33v51.18c0,22.85-12.34,33.36-34.5,33.36-11.65,0-22.96-2.86-30.16-8.45l7.08-12.79c5.25,4.23,13.82,6.97,21.7,6.97,12.57,0,18.05-5.71,18.05-16.79v-2.63c-4.68,5.14-11.42,7.65-19.42,7.65-17.02,0-30.73-11.77-30.73-29.7s13.71-29.7,30.73-29.7c8.57,0,15.65,2.86,20.33,8.8v-7.88h16.91ZM1045.77,110.12c0-9.02-6.74-15.08-16.11-15.08s-16.22,6.05-16.22,15.08,6.85,15.08,16.22,15.08,16.11-6.05,16.11-15.08Z"/>
    <path class="cls-2" d="M1075.35,112.06c0-18.51,14.28-31.64,33.81-31.64s33.7,13.14,33.7,31.64-14.16,31.64-33.7,31.64-33.81-13.14-33.81-31.64ZM1124.81,112.06c0-10.62-6.74-17.02-15.65-17.02s-15.76,6.4-15.76,17.02,6.85,17.02,15.76,17.02,15.65-6.4,15.65-17.02Z"/>
  </g>
  <path class="cls-2" d="M132.69,137.54c-.4,0-4.91,3.42-6.75,4.16-7.09,2.83-13.07,2.53-20.36.5-2.13-.59-8.33-4.01-8.82-4.01h-33.04c-.94-11.23,2.46-22.99,14.67-25.75-1.27-15.93,9.34-24.59,23.69-27.95,19.83-4.65,42.86-.89,63.21-2.09,4.55-10.1,14.33-15.81,24.8-18.32,24.69-5.92,50.86,1.12,72.92,12.34l2.07-.55c1.65-2.61-4.49-8.86-3.77-9.54l42.27-3.79c2.35,8.46,2.57,16.56-4.42,22.72-2.75,2.42-6.39,3.6-8.99,6.08,22.19,11.73,18.72,46.13-6.39,51.67-24.16,5.33-43.11-20.9-29.55-41.74,8.03-12.34,21.56-12.69,33.36-18.6,4.36-2.18,9.65-5.55,8.99-11.22l-22.82,2.52c-.2,11.58-15.28,14.16-24.42,15.36-25.11,3.28-51.87.35-77.22,1.36-.6,9.17,8.07,11.91,15.39,13.8,19.23,4.98,55.42,2.91,49.4,33.03h-104.25ZM231.51,82.4c5.03-.2,11.61-.67,16.58-1.39.62-.09,2.96-.46,2.97-.89-3.01-1.24-6.05-2.62-9.13-3.7-15.15-5.3-30.87-7.62-46.82-4.77-7.05,1.26-15.93,4.4-19.75,10.71,18.64-.57,37.53.77,56.16.03ZM228.96,127.89c-2.57-7.28-11.42-9.14-18.21-10.68-16.66-3.78-47.35-2.86-46.95-26.51-15.09.66-30.89-.86-45.9-.03-11.88.66-31.68,3.78-31.08,19.27,8.9-1.9,14.8-10.66,23.23-13.01,20.22-5.63,35.75,12.97,29.37,32.25h88.85s.69-1.31.69-1.31ZM259.36,122.5c5.15,15.69,27.5,17.32,35.03,2.89,6.98-13.37-2.5-24.35-13.64-30.72-13.78,2.74-26.52,12.2-21.39,27.83ZM96.64,114.96c-1.97,1.12-7.6,2.52-7,4.65.94,3.32,8.05,9.56,11.09,11.41,9.49,5.8,24.29,7.01,30.07-4.34,4.76-9.34-1.44-20.94-11.75-22.32-8.64-1.16-15.29,6.57-22.42,10.61ZM86.18,129.84c-1.86-2.31-3.09-5.57-4.63-7.88-2.78-4.17-9.86,4.18-8.85,7.88h13.47Z"/>
</svg>